<?xml version="1.0" encoding="utf-8"?>
<!-- Generator: Adobe Illustrator 26.0.3, SVG Export Plug-In . SVG Version: 6.00 Build 0)  -->
<svg version="1.0" id="Layer_1" xmlns="http://www.w3.org/2000/svg" xmlns:xlink="http://www.w3.org/1999/xlink" x="0px" y="0px"
	 viewBox="0 0 912 605.7" style="enable-background:new 0 0 912 605.7;" xml:space="preserve">
<style type="text/css">
	.st0{fill:#A1C517;}
	.st1{fill:#000D42;}
</style>
<path class="st0" d="M295.3,288.7c7.8,0,14.1,6.3,14.1,14.1s-6.3,14.1-14.1,14.1c-1.1-0.1-2.2-0.2-3.3-0.4c-0.7-0.2-4-0.8-6.3,0.1
	c-3.3,1.3-5.4,4.5-5.4,8c0.1,3.4,2.1,6.5,5.3,7.9c16.4,5.4,34.2-3.6,39.6-20c5.4-16.4-3.6-34.2-20-39.6c-11.6-3.8-24.3-0.5-32.6,8.3
	c0,0-55.4,56.9-68.4,68.1c-11.6,10-25.7,16.3-42.2,16.3c-34.8-0.4-62.6-29-62.1-63.7c0.4-34.1,28-61.7,62.1-62.1
	c6.7,0,11.2,1.2,13,1.3c4.2,0.2,7.7-3,7.9-7.2c0-0.1,0-0.2,0-0.3c0-3.6-2.6-6.7-6.2-7.4c-4.9-0.9-9.8-1.4-14.8-1.4
	c-43,0-77.9,34.8-77.9,77.8c0,43,34.8,77.9,77.8,77.9c20.1,0,39.4-7.7,53.9-21.6l69.7-66.1C288.1,290.4,290.9,288.7,295.3,288.7
	 M295.3,347.7c-7.1,0-10.1-1.5-12.5-1.5c-4.8,0-8.6,3.9-8.5,8.7c0,3.6,2.4,6.9,5.8,8.1c5,1.3,10.2,2,15.3,1.9
	c34.3,0,62.1-27.7,62.2-62c0-34.3-27.7-62.1-62-62.2c-16.9,0-33.1,6.8-44.8,19l-62.5,69.5c-14.6,14.5-38.1,14.5-52.6-0.1
	c-14.5-14.6-14.5-38.1,0.1-52.6c7-7,16.4-10.9,26.3-10.8c4.8,0,6.3,0.9,8.3,0.9c4-0.1,7.3-3.4,7.3-7.5c0-3.5-2.4-6.6-5.8-7.5
	c-3.2-0.6-6.5-0.9-9.8-0.9c-28.8,0-52.2,23.4-52.2,52.2c0,28.8,23.4,52.2,52.2,52.2c14.8,0,28.9-6.3,38.8-17.3l61-64.6
	c16.4-18.6,44.8-20.3,63.3-3.9c18.6,16.4,20.3,44.8,3.9,63.3C320.4,342.2,308.1,347.7,295.3,347.7 M361,237.2
	c-17.4-17.5-41-27.3-65.6-27.2c-29.6,0.1-57.5,14.2-75,38.1c0,0-47,58.8-49.4,61.7c-2.2,2.8-5.6,4.5-9.1,4.5
	c-6.4,0-11.5-5.2-11.5-11.5c0-6.4,5.2-11.5,11.5-11.5c0,0,0,0,0,0c1.2,0,2.1,0.1,3.1,0.1c4.1-0.1,7.3-3.4,7.3-7.5
	c0-3.1-2.2-7.8-9.5-7.8c-15.7,0-27.4,12-27.4,26.6c0,14.6,11.9,26.5,26.5,26.5c7.4,0,14.5-3.1,19.5-8.6l54.2-64.2
	c25.6-33,73.1-38.9,106.1-13.3c33,25.6,38.9,73.1,13.3,106.1c-14.3,18.4-36.3,29.2-59.7,29.2c-11.8,0-15.7-2.2-18.6-2.2
	c-4.8-0.1-8.8,3.8-8.8,8.6c0,0,0,0.1,0,0.1c0,3.6,2.2,6.8,5.6,8.1c3,1.2,14.5,2.6,21.8,2.6c51.3,0,92.9-41.5,92.9-92.8
	C388.2,278.2,378.4,254.6,361,237.2"/>
<path class="st1" d="M492.1,301.2l-49.2-18c-3.4-1.3-5.1-5.1-3.8-8.5c1-2.5,3.4-4.2,6.1-4.2h53.4v-19.3h-54
	c-14.3,0-25.9,11.6-25.9,25.9c0,10.7,6.6,20.3,16.6,24.2l49.2,18c3.4,1.3,5.1,5.1,3.8,8.5c-1,2.5-3.4,4.2-6.1,4.2h-63.6v19.3h64.1
	c14.3,0,26.4-11.6,26.4-25.9C509.3,314.4,501.9,305,492.1,301.2 M764.4,332c-3.6,0-6.6-2.9-6.6-6.6c0-2.7,1.7-5.2,4.2-6.1l49.2-18
	c13.3-5.1,20-20.1,14.9-33.4c-3.8-10-13.4-16.6-24.1-16.6h-54v19.3h53.4c3.6,0,6.6,2.9,6.6,6.6c0,2.7-1.7,5.2-4.2,6.1l-49.2,18
	c-9.7,3.7-17.2,13.1-17.2,24.2c0,14.3,12.1,25.9,26.4,25.9H828V332L764.4,332z M590,311c0,15.2-9.1,23-23.2,23
	c-14.1,0-23.3-7.8-23.2-23v-59.8h-21v61.1c0,22.4,16.2,40.2,44.2,40.2c28,0,44.2-17.9,44.2-40.2v-61.1h-21V311z M678.5,249.9
	c-28.4-0.4-51.7,22.3-52.1,50.6c-0.4,28.4,22.3,51.7,50.6,52.1c0.5,0,1,0,1.4,0c16.6,0.3,32.4-7.1,42.9-20l-16.1-11.5
	c-7.3,8.5-16.2,13.3-26.8,13.3c-14.9,0-27.3-11.1-30.5-26h80.6c0.3-2.4,0.5-4.8,0.5-7.2C729.2,272.9,707.4,249.9,678.5,249.9
	 M648.5,291.9c3.8-13.9,15.8-24,30-24s26.2,10.1,29.9,24H648.5z"/>
</svg>
